# xmcd
#
# Track frame offsets: 
#        150
#        10756
#        24827
#        41712
#        59702
#        86214
#
# Disc length: 1305 seconds
#
# Revision: 1
# Processed by: cddbd v1.5.2PL0 Copyright (c) Steve Scherf et al.
# Submitted via: ExactAudioCopy v0.99pb5
#
DISCID=46051706
DTITLE=Art Tatum - Songs By Art Tatum
DYEAR=2011
DGENRE=Blues
TTITLE0=Georgia On My Mind
TTITLE1=Sweet Lorraine
TTITLE2=Over The Rainbow
TTITLE3=If You Hadn't Gone Away
TTITLE4=Body And Soul
TTITLE5=Ain't Misbehavin'
EXTD=
EXTT0=
EXTT1=
EXTT2=
EXTT3=
EXTT4=
EXTT5=
PLAYORDER=
